<?xml version="1.0" encoding="utf-8"?>
<svg version="1.1" xmlns:xlink="http://www.w3.org/1999/xlink" width="25px" height="29px" xmlns="http://www.w3.org/2000/svg">
  <g transform="matrix(1 0 0 1 -391 -214 )">
    <path d="M 15.33203125 17.78515625  C 16.649138621794872 16.257311698717945  17.307692307692307 14.41866987179487  17.307692307692307 12.26923076923077  C 17.307692307692307 10.119791666666664  16.649138621794872 8.281149839743588  15.33203125 6.753305288461538  C 14.01492387820513 5.2254607371794854  12.429887820512821 4.461538461538462  10.576923076923077 4.461538461538462  C 8.723958333333334 4.461538461538462  7.138922275641027 5.2254607371794854  5.821814903846153 6.753305288461538  C 4.504707532051282 8.281149839743588  3.8461538461538463 10.119791666666664  3.8461538461538463 12.26923076923077  C 3.8461538461538463 14.41866987179487  4.504707532051282 16.257311698717945  5.821814903846153 17.78515625  C 7.138922275641027 19.313000801282048  8.723958333333334 20.076923076923077  10.576923076923077 20.076923076923077  C 12.429887820512821 20.076923076923077  14.01492387820513 19.313000801282048  15.33203125 17.78515625  Z M 24.444110576923077 25.200721153846153  C 24.814703525641026 25.630608974358978  25 26.153445512820515  25 26.76923076923077  C 25 27.373397435897438  24.809695512820515 27.896233974358978  24.42908653846154 28.337740384615387  C 24.048477564102566 28.779246794871796  23.597756410256412 29  23.076923076923077 29  C 22.536057692307693 29  22.08533653846154 28.779246794871796  21.724759615384613 28.337740384615387  L 16.571514423076923 22.377403846153847  C 14.778645833333334 23.818108974358978  12.780448717948719 24.538461538461537  10.576923076923077 24.538461538461537  C 9.14463141025641 24.538461538461537  7.774939903846153 24.216045673076923  6.4678485576923075 23.571213942307693  C 5.160757211538462 22.926382211538463  4.033954326923077 22.05498798076923  3.087439903846154 20.95703125  C 2.140925480769231 19.85907451923077  1.389723557692308 18.551983173076923  0.8338341346153846 17.035757211538463  C 0.27794471153846156 15.51953125  0 13.9306891025641  0 12.26923076923077  C 0 10.607772435897433  0.27794471153846156 9.018930288461538  0.8338341346153846 7.502704326923077  C 1.389723557692308 5.986478365384615  2.140925480769231 4.679387019230771  3.087439903846154 3.5814302884615383  C 4.033954326923077 2.483473557692309  5.160757211538462 1.6120793269230764  6.4678485576923075 0.9672475961538471  C 7.774939903846153 0.32241586538461464  9.14463141025641 0  10.576923076923077 0  C 12.009214743589745 0  13.37890625 0.32241586538461464  14.685997596153847 0.9672475961538471  C 15.993088942307693 1.6120793269230764  17.119891826923077 2.483473557692309  18.06640625 3.5814302884615383  C 19.012920673076923 4.679387019230771  19.764122596153847 5.986478365384615  20.320012019230766 7.502704326923077  C 20.875901442307693 9.018930288461538  21.153846153846153 10.607772435897433  21.153846153846153 12.26923076923077  C 21.153846153846153 14.825320512820511  20.532852564102566 17.143229166666664  19.290865384615387 19.22295673076923  L 24.444110576923077 25.200721153846153  Z " fill-rule="nonzero" fill="#7f7f7f" stroke="none" transform="matrix(1 0 0 1 391 214 )" />
  </g>
</svg>